# xmcd
#
# Track frame offsets:
# 150
# 32007
# 62103
# 85626
# 102915
# 139481
# 164469
# 197082
# 214125
# 243980
# 268446
# 311552
#
# Disc length: 4592 seconds
#
# Revision: 0
# Processed by: cddbd v1.5.2PL0 Copyright (c) Steve Scherf et al.
# Submitted via: Audion 3.0.2 (http://www.panic.com/audion/)
#
DISCID=b111ee0c
DTITLE=Widespread Panic - New Year's Vacation Shows(live) [Dec 30th and 31st, 2003]
DYEAR=1900
DGENRE=
TTITLE0=Travelin' Light
TTITLE1=Dorothea
TTITLE2=Surprise Valley Reprise
TTITLE3=Porch Song
TTITLE4=Fishing
TTITLE5=Papa Johnny Road
TTITLE6=Party At Your Mama's House
TTITLE7=Counting Train Cars
TTITLE8=I Like The Things About Me
TTITLE9=Down
TTITLE10=Christmas Katie
TTITLE11=Blackout Blues
EXTD=
EXTT0=
EXTT1=
EXTT2=
EXTT3=
EXTT4=
EXTT5=
EXTT6=
EXTT7=
EXTT8=
EXTT9=
EXTT10=
EXTT11=
PLAYORDER=
